<?xml version="1.0" encoding="utf-8"?>
<!-- Generator: Adobe Illustrator 23.0.1, SVG Export Plug-In . SVG Version: 6.00 Build 0)  -->
<svg version="1.1" id="logo" xmlns="http://www.w3.org/2000/svg" xmlns:xlink="http://www.w3.org/1999/xlink" x="0px" y="0px"
	 width="1380.1px" height="512px" viewBox="0 0 1380.1 512" enable-background="new 0 0 1380.1 512" xml:space="preserve">
<g id="logo_512">
	<path d="M1010.8,372.2c19.4,81.9,91.4,139.5,182.1,139.5c105.8,0,187.3-79.3,187.3-184.4c0-105.1-84.4-185.1-187.3-185.1
		c-84.4,0-138.1,54.9-169.1,91.6L890.1,381.7v-142l-92.6-53.5L637.9,376.4V5.9h-92.6v499.9h92.6l159.6-190.2v190.2h92.6
		L1010.8,372.2z M1192.8,428.7c-52.9,0-97.2-43.6-97.2-101.5c0-57.9,44.3-101.5,97.2-101.5c52.9,0,96.5,43.6,96.5,101.5
		C1289.3,385.1,1245.7,428.7,1192.8,428.7z"/>
	<circle cx="843.8" cy="66.7" r="66.7"/>
	<path d="M398,325.6c-25.1,57.6-77.8,95-141.9,95c-87.8,0-158.9-72.4-158.9-164.8C97.2,163.4,168.4,91,256.1,91
		c64.4,0,117.2,37.8,142.2,95.7H502C471.7,79.2,373,0.3,255.8,0.3C114.5,0.3,0,114.9,0,256.2C0,397.5,114.5,512,255.8,512
		C373,512,471.7,433.2,502,325.6H398z"/>
</g>
</svg>
